<svg width="1440" height="1024" viewBox="0 0 1440 1024" fill="none" xmlns="http://www.w3.org/2000/svg">
<g clip-path="url(#clip0)">
<rect width="1440" height="1024" fill="white"/>
<path d="M1506 930.396C1478.98 999.664 1416.22 1071.53 1334.67 1080.75C1253.12 1089.97 1190.59 1047.8 1203.76 964.097C1216.92 880.393 1311.01 872.328 1398.42 840.183C1485.83 808.038 1506 847.357 1506 930.396Z" fill="#3F51B5"/>
<path d="M1475.5 -31.5C1475.5 -31.5 874.443 -76.2526 809.443 62.2474C744.443 200.747 1123.94 162.247 1218.94 249.747C1313.94 337.247 1311.56 434.753 1413 494.501C1514.44 554.248 1475.5 -31.5 1475.5 -31.5Z" fill="#3F51B5" fill-opacity="0.45"/>
<path d="M-95.1112 1067.53C-95.1112 1067.53 322.524 1129.37 371.512 1026.78C420.499 924.187 197 987.5 223 892.5C249 797.5 255.5 794.5 -49.9999 830C-355.5 865.5 -95.1112 1067.53 -95.1112 1067.53Z" fill="#A8B0DD"/>
</g>
<defs>
<clipPath id="clip0">
<rect width="1440" height="1024" fill="white"/>
</clipPath>
</defs>
</svg>
